<svg width="256" height="256" viewBox="0 0 256 256" fill="none" xmlns="http://www.w3.org/2000/svg">
<path d="M60.4 91.8001H108.6V95.6H64.8V124.4H106V128.2H64.8V159.8H109.2V163.6H60.4V91.8001ZM113 91.8001H118.2L141 123.4L164 91.8001L195.6 51.8L143.6 126.8L170.4 163.6H165L140.8 130L116.4 163.6H111.2L138.2 126.8L113 91.8001ZM172.4 95.6V91.8001H227.4V95.6H202V163.6H197.6V95.6H172.4ZM0 91.8001H5.4L81.8 205.4L50.2 163.6L4.6 97.2L4.4 163.6H0V91.8001ZM227 158.6C228 158.6 228.6 158 228.6 157C228.6 156 228 155.4 227 155.4C226 155.4 225.4 156 225.4 157C225.4 158 226.2 158.6 227 158.6ZM231.4 154.4C231.4 157 233.4 158.8 236.2 158.8C239.2 158.8 241 157 241 153.8V142.8H238.6V153.8C238.6 155.6 237.8 156.4 236.2 156.4C234.8 156.4 233.8 155.6 233.8 154.2H231.4V154.4ZM244 154.2C244.2 157 246.4 158.8 250 158.8C253.6 158.8 256 157 256 154C256 151.6 254.6 150.4 251.6 149.6L249.8 149.2C247.8 148.8 247 148 247 147C247 145.6 248.2 144.6 250.2 144.6C252 144.6 253.2 145.4 253.4 147H255.8C255.6 144.4 253.4 142.6 250.2 142.6C246.8 142.6 244.6 144.4 244.6 147.2C244.6 149.4 245.8 150.8 248.6 151.4L250.6 151.8C252.6 152.2 253.6 153 253.6 154.2C253.6 155.6 252.2 156.6 250.2 156.6C248.2 156.6 246.6 155.6 246.4 154.2H244Z" fill="white"/>
</svg>
