<svg width="256" height="256" viewBox="0 0 256 256" fill="none" xmlns="http://www.w3.org/2000/svg">
<path d="M228.65 161.498C228.07 161.498 227.494 161.346 226.986 161.05L221.686 157.914C220.894 157.472 221.28 157.314 221.542 157.224C222.598 156.856 222.812 156.77 223.938 156.134C224.056 156.068 224.21 156.092 224.332 156.164L228.402 158.582C228.478 158.622 228.562 158.644 228.648 158.644C228.734 158.644 228.818 158.622 228.894 158.582L244.768 149.42C244.843 149.376 244.905 149.313 244.947 149.238C244.99 149.162 245.013 149.077 245.012 148.99V130.67C245.012 130.582 244.99 130.496 244.946 130.419C244.903 130.342 244.841 130.278 244.766 130.232L228.898 121.078C228.823 121.037 228.739 121.015 228.653 121.015C228.567 121.015 228.483 121.037 228.408 121.078L212.542 130.234C212.467 130.28 212.404 130.343 212.361 130.42C212.317 130.496 212.293 130.582 212.292 130.67V148.99C212.292 149.166 212.39 149.332 212.542 149.414L216.89 151.928C219.25 153.106 220.696 151.718 220.696 150.322V132.232C220.696 131.978 220.902 131.776 221.156 131.776H223.17C223.42 131.776 223.628 131.978 223.628 132.232V150.322C223.628 153.47 221.914 155.276 218.928 155.276C218.01 155.276 217.288 155.276 215.272 154.284L211.11 151.888C210.604 151.593 210.184 151.17 209.892 150.662C209.6 150.154 209.446 149.578 209.446 148.992V130.672C209.446 129.482 210.08 128.372 211.11 127.78L226.984 118.606C227.496 118.328 228.069 118.182 228.651 118.182C229.233 118.182 229.807 118.328 230.318 118.606L246.192 127.78C247.22 128.374 247.858 129.484 247.858 130.672V148.992C247.857 149.578 247.703 150.154 247.411 150.662C247.118 151.17 246.698 151.593 246.192 151.888L230.318 161.052C229.811 161.346 229.236 161.5 228.65 161.498ZM233.556 148.876C226.606 148.876 225.152 145.686 225.152 143.012C225.153 142.89 225.201 142.774 225.287 142.688C225.374 142.602 225.49 142.554 225.612 142.554H227.664C227.774 142.554 227.88 142.593 227.964 142.664C228.047 142.735 228.103 142.834 228.12 142.942C228.428 145.032 229.354 146.086 233.556 146.086C236.898 146.086 238.322 145.33 238.322 143.554C238.322 142.53 237.918 141.772 232.722 141.262C228.378 140.832 225.692 139.874 225.692 136.396C225.692 133.194 228.392 131.282 232.916 131.282C238.002 131.282 240.518 133.048 240.836 136.836C240.841 136.9 240.833 136.964 240.812 137.024C240.792 137.085 240.759 137.141 240.716 137.188C240.673 137.234 240.62 137.27 240.563 137.295C240.505 137.32 240.443 137.333 240.38 137.334H238.318C238.214 137.334 238.113 137.299 238.032 137.234C237.951 137.169 237.894 137.078 237.872 136.976C237.376 134.776 236.176 134.074 232.914 134.074C229.264 134.074 228.84 135.348 228.84 136.298C228.84 137.452 229.34 137.788 234.27 138.44C239.148 139.086 241.466 139.998 241.466 143.428C241.468 146.894 238.584 148.876 233.556 148.876Z" fill="#83CD29"/>
<path d="M195.964 136.86C196.59 136.494 196.976 135.826 196.976 135.1V130.392C196.976 129.668 196.592 129 195.964 128.634L179.236 118.922C178.927 118.742 178.575 118.647 178.218 118.646C177.86 118.646 177.508 118.739 177.198 118.918L160.366 128.636C160.057 128.815 159.801 129.071 159.623 129.38C159.444 129.689 159.35 130.039 159.35 130.396V149.828C159.35 150.558 159.742 151.234 160.378 151.596L177.104 161.126C177.72 161.48 178.476 161.482 179.098 161.138L189.214 155.514C189.371 155.427 189.503 155.299 189.595 155.144C189.687 154.989 189.736 154.813 189.737 154.633C189.738 154.452 189.692 154.275 189.602 154.119C189.512 153.963 189.382 153.834 189.226 153.744L172.29 144.024C172.135 143.936 172.005 143.807 171.916 143.653C171.826 143.498 171.778 143.323 171.778 143.144V137.052C171.778 136.688 171.972 136.354 172.286 136.174L177.56 133.134C177.714 133.045 177.889 132.998 178.067 132.998C178.245 132.998 178.42 133.045 178.574 133.134L183.848 136.174C184.003 136.263 184.131 136.39 184.221 136.545C184.31 136.699 184.358 136.874 184.358 137.052V141.844C184.357 142.023 184.403 142.199 184.493 142.355C184.582 142.51 184.711 142.639 184.866 142.729C185.021 142.818 185.197 142.865 185.377 142.864C185.556 142.863 185.732 142.815 185.886 142.724L195.964 136.86Z" fill="#404137"/>
<path d="M177.968 135.948C178.028 135.915 178.095 135.897 178.163 135.897C178.231 135.897 178.298 135.915 178.358 135.948L181.588 137.814C181.708 137.884 181.782 138.014 181.782 138.152V141.882C181.782 142.022 181.708 142.15 181.588 142.22L178.358 144.084C178.299 144.118 178.231 144.137 178.163 144.137C178.094 144.137 178.027 144.118 177.968 144.084L174.74 142.22C174.68 142.186 174.631 142.137 174.596 142.077C174.562 142.018 174.544 141.951 174.544 141.882V138.152C174.544 138.014 174.618 137.884 174.74 137.814L177.968 135.948Z" fill="#83CD29"/>
<path d="M134.166 143.708C134.166 143.888 134.07 144.056 133.912 144.148L128.132 147.48C128.055 147.525 127.967 147.549 127.878 147.549C127.789 147.549 127.701 147.525 127.624 147.48L121.844 144.148C121.767 144.103 121.703 144.039 121.658 143.962C121.614 143.885 121.59 143.797 121.59 143.708V137.032C121.59 136.852 121.688 136.682 121.844 136.59L127.624 133.254C127.701 133.208 127.789 133.183 127.879 133.183C127.969 133.183 128.057 133.208 128.134 133.254L133.916 136.59C133.993 136.636 134.056 136.7 134.1 136.778C134.144 136.855 134.168 136.943 134.168 137.032L134.166 143.708ZM135.728 94.276C135.573 94.1913 135.399 94.1483 135.222 94.151C135.046 94.1537 134.873 94.2022 134.72 94.2916C134.568 94.3811 134.442 94.5084 134.353 94.6613C134.265 94.8142 134.218 94.9874 134.216 95.164V120.994C134.215 121.119 134.183 121.241 134.121 121.349C134.058 121.457 133.969 121.547 133.862 121.61C133.754 121.672 133.631 121.704 133.506 121.704C133.381 121.704 133.258 121.672 133.15 121.61L128.934 119.18C128.625 119.002 128.275 118.909 127.919 118.909C127.563 118.909 127.213 119.002 126.904 119.18L110.068 128.896C109.759 129.075 109.502 129.331 109.323 129.641C109.144 129.95 109.05 130.301 109.05 130.658V150.096C109.05 150.822 109.438 151.492 110.066 151.858L126.902 161.58C127.53 161.944 128.306 161.944 128.936 161.58L145.776 151.858C146.085 151.679 146.341 151.422 146.519 151.113C146.698 150.803 146.792 150.453 146.792 150.096V101.642C146.792 100.906 146.392 100.226 145.75 99.866L135.728 94.276Z" fill="#404137"/>
<path d="M76.476 118.814C76.7848 118.635 77.1352 118.541 77.492 118.541C77.8488 118.541 78.1992 118.635 78.508 118.814L95.344 128.528C95.972 128.892 96.36 129.564 96.36 130.29V149.734C96.36 150.46 95.972 151.132 95.344 151.496L78.51 161.218C78.2006 161.396 77.8499 161.49 77.493 161.49C77.1361 161.49 76.7854 161.396 76.476 161.218L59.646 151.496C59.3373 151.317 59.081 151.06 58.9028 150.751C58.7245 150.441 58.6304 150.091 58.63 149.734V130.288C58.63 129.564 59.018 128.892 59.646 128.528L76.476 118.814Z" fill="#83CD29"/>
<path d="M45.86 130.128C45.86 129.396 45.476 128.724 44.844 128.362L28.014 118.676C27.7313 118.512 27.4125 118.421 27.086 118.41H26.912C26.5855 118.421 26.2667 118.512 25.984 118.676L9.15197 128.362C8.84233 128.541 8.58527 128.799 8.40659 129.109C8.22791 129.419 8.13389 129.77 8.13397 130.128L8.16997 156.208C8.16997 156.572 8.35997 156.91 8.67797 157.086C8.83024 157.178 9.0049 157.227 9.18297 157.227C9.36104 157.227 9.53571 157.178 9.68797 157.086L19.688 151.358C20.32 150.982 20.706 150.32 20.706 149.594V137.41C20.706 136.682 21.09 136.012 21.72 135.648L25.98 133.196C26.2879 133.015 26.6388 132.92 26.996 132.922C27.344 132.922 27.7 133.01 28.01 133.196L32.266 135.648C32.896 136.012 33.284 136.682 33.284 137.41V149.594C33.284 150.32 33.674 150.986 34.302 151.358L44.302 157.086C44.4562 157.174 44.6308 157.22 44.8084 157.22C44.986 157.219 45.1604 157.172 45.3142 157.084C45.468 156.995 45.5958 156.867 45.6849 156.714C45.774 156.56 45.8212 156.386 45.822 156.208L45.86 130.128Z" fill="#404137"/>
</svg>
