<svg width="256" height="256" viewBox="0 0 256 256" fill="none" xmlns="http://www.w3.org/2000/svg">
<path fill-rule="evenodd" clip-rule="evenodd" d="M103.668 46.034C111.18 46.034 118.692 46.15 126.194 45.954C128.184 45.902 131.754 47.548 131.594 43.412C131.472 40.046 128.35 41.264 126.458 41.234C117.984 41.1 109.482 40.778 101.042 41.308C95.036 41.682 93.266 39.402 94.02 33.894C94.28 31.994 94.03 30.026 94.07 28.09C94.334 15.198 97.45 10.81 109.954 7.63C123.73 4.13 137.828 4.246 151.566 7.262C163.916 9.974 169.046 19.582 168.422 28.47C167.662 39.316 168.25 50.256 168.24 61.156C168.222 74.862 161.14 82.136 147.322 82.326C135.942 82.482 124.548 82.606 113.174 82.29C99.618 81.91 89.674 93.17 89.606 105.93C89.606 106.898 89.772 107.898 89.58 108.832C88.604 113.518 92.504 121.092 87.536 122.484C79.976 124.608 71.124 124.608 64.456 117.862C62.196 115.582 60.292 113.028 59.288 110.076C53.93 94.346 53.084 78.416 58.128 62.44C61.272 52.468 69.824 46.266 80.418 46.088C88.166 45.958 95.916 46.062 103.664 46.062L103.668 46.034ZM117.472 23.794C117.148 19.988 115.102 17.21 110.88 17.094C106.262 16.974 103.876 19.766 103.87 24.31C103.866 28.522 106.16 31.22 110.352 31.342C114.958 31.476 117.188 28.622 117.472 23.794Z" fill="#386F9F"/>
<path fill-rule="evenodd" clip-rule="evenodd" d="M161.648 123.144C153.168 123.144 144.684 123.07 136.204 123.204C134.294 123.228 131.09 122.02 130.99 125.286C130.878 128.99 134.316 128.026 136.5 128.048C144.98 128.154 153.468 128.244 161.946 128.008C166.302 127.888 168.08 128.722 168.406 133.858C169.88 157.108 159.79 159.118 141.18 163.348C130.504 165.774 119.058 164.488 108.53 159.772C99.824 155.878 94.482 150.266 95.156 139.758C95.824 129.386 95.936 118.88 95.138 108.518C94.178 96.012 101.958 86.814 117.088 86.81C127.268 86.808 137.516 86.032 147.608 86.96C162.038 88.284 173.352 75.776 173.848 61.232C173.868 60.75 173.744 60.232 173.868 59.784C175.14 55.314 170.616 48.67 176.668 46.412C185.814 43.002 196.128 46.586 200.8 53.526C206.69 62.264 207.486 72.546 208.438 82.586C209.468 93.408 206.432 103.596 201.886 113.358C198.798 119.978 193.606 123.178 186.372 123.188C178.132 123.194 169.894 123.188 161.652 123.188C161.648 123.172 161.648 123.158 161.648 123.144ZM159.44 144.744C158.534 140.612 156.67 137.792 151.87 137.674C146.878 137.554 145.59 141.288 145.616 144.622C145.644 148.166 146.632 152.526 152.036 152.118C156.528 151.774 158.718 148.992 159.44 144.744Z" fill="#FFCF46"/>
<path fill-rule="evenodd" clip-rule="evenodd" d="M28.258 229.698C28.258 234.862 28.492 239.698 28.148 244.492C28 246.56 30.28 250.452 25.942 250.448C22.118 250.448 21.136 247.404 21.258 243.726C21.492 236.706 21.326 229.672 21.326 222.646V206.65C21.326 197.01 23.912 193.746 33.132 191.75C41.704 189.886 48.44 192.772 51.904 200.276C55.368 207.782 55.636 215.516 52.17 223.152C48.754 230.676 42.462 233.484 34.402 231.254C32.566 230.754 30.712 230.32 28.258 229.698ZM28.258 210.802C28.258 213.462 28.618 216.174 28.184 218.762C27.18 224.744 31 226.218 35.504 227.282C39.958 228.334 43.012 226.44 44.798 222.516C47.8 215.936 48.304 209.15 46.024 202.192C44 196.008 39.326 195.284 33.87 196.052C28.482 196.818 27.752 200.482 28.222 205.012C28.422 206.922 28.258 208.872 28.258 210.802ZM86.232 229.378C82.542 230.338 79.338 231.362 76.058 231.978C68.878 233.32 63.562 229.378 61.692 222.19C59.372 213.294 61.336 204.432 61.396 195.556C61.422 191.51 65.166 193.088 67.756 190.92C67.756 200.42 67.792 208.62 67.744 216.814C67.718 220.93 68.782 224.314 72.674 226.484C76.97 228.88 80.494 226.598 84.234 225.06C86.914 223.958 86.58 221.708 86.584 219.568C86.604 211.824 86.582 204.088 86.608 196.344C86.612 194.434 86.414 192.1 89.234 192.194C91.748 192.276 92.842 193.77 92.8 196.51C92.618 209.324 92.98 222.156 92.46 234.952C92.066 244.628 85.24 250.538 75.42 250.972C73.95 251.034 72.41 251.17 71.86 249.346C71.022 246.538 73.296 247.068 74.79 246.59C85.592 243.154 87.004 241.102 86.232 229.378ZM131.88 196.128C134.738 194.778 136.38 193.542 138.186 193.208C148.32 191.334 156.086 192.048 156.066 205.698C156.052 212.728 156.07 219.76 156.052 226.788C156.048 228.756 156.174 230.672 153.24 230.842C150.146 231.026 149.466 229.256 149.48 226.83C149.516 220.056 149.7 213.282 149.694 206.51C149.69 201.25 148.616 196.594 141.926 196.61C136.058 196.62 131.902 201 131.872 207.044C131.838 213.587 131.84 220.129 131.878 226.672C131.884 228.996 131.934 231.034 128.574 230.842C125.548 230.662 125.92 228.622 125.92 226.744C125.9 209.544 125.984 192.326 125.838 175.114C125.812 172.098 127.002 170.226 129.678 170.098C133.454 169.924 131.724 173.226 131.78 174.882C132.026 181.624 131.88 188.382 131.88 196.128ZM163.86 211.55C163.478 198.12 169.848 190.95 181.38 191.366C187.168 191.578 191.51 194.146 194.312 199.146C199.262 207.99 198.592 216.838 193.236 225.12C189.556 230.808 183.896 233.49 176.996 232.026C170.192 230.586 164.864 224.46 163.9 217.32C163.644 215.43 163.86 213.472 163.86 211.55ZM190.5 211.864C190.196 209.52 190.25 206.252 189.274 203.336C187.94 199.336 185.508 196.116 180.546 195.896C175.54 195.68 173.042 198.606 171.372 202.656C168.75 209.014 168.92 215.398 171.76 221.642C173.584 225.664 176.4 228.608 181.28 227.792C186.086 226.99 188.922 223.84 189.904 219.166C190.35 217.048 190.278 214.828 190.5 211.864ZM204.514 213.654C204.514 211.23 204.468 208.81 204.522 206.398C204.634 201.748 203.152 196.596 209.422 194.22C216.602 191.508 223.718 189.476 230.946 193.674C233.65 195.246 234.646 198.102 234.674 201.134C234.748 209.596 234.636 218.062 234.75 226.524C234.79 229.476 234.014 230.952 230.696 230.872C227.06 230.786 227.826 228.306 227.85 226.326C227.936 219.566 228.406 212.812 228.278 206.062C228.11 197.562 223.446 194.096 215.5 196.182C212.204 197.05 210.144 198.65 210.306 202.73C210.628 210.694 210.38 218.686 210.41 226.664C210.418 228.976 210.452 231.024 207.116 230.83C204.06 230.654 204.56 228.54 204.536 226.706C204.48 222.354 204.52 218 204.514 213.654ZM117.378 194.806C116.878 195.398 116.458 196.326 116.018 196.334C108.09 196.444 110.29 202.362 110.086 206.752C109.892 210.842 110.086 214.952 110.028 219.054C109.968 223.13 110.322 226.918 115.282 228C116.704 228.308 117.352 229.128 117.056 230.548C116.73 232.116 115.48 232.054 114.242 232.038C108.542 231.938 104.316 227.908 104.148 222.008C103.976 215.98 104.21 209.938 104.068 203.916C103.994 201.056 105.48 197.406 100.868 196.272C100.362 196.15 100.182 194.716 99.852 193.898C106.004 191.968 103.452 186.662 104.296 182.636C104.696 180.73 106.506 180.208 108.216 180.046C109.946 179.882 109.96 181.282 110.016 182.452C110.244 187.092 107.842 193.302 116.384 192.964C116.67 192.954 117.004 194.09 117.378 194.806Z" fill="#386F9F"/>
</svg>
