<svg width="256" height="256" viewBox="0 0 256 256" fill="none" xmlns="http://www.w3.org/2000/svg">
<path d="M54.51 161.438C54.51 176.098 42.554 188.072 27.892 188.072C13.232 188.072 1.26001 176.098 1.26001 161.438C1.26001 146.778 13.234 134.804 27.894 134.804H54.512L54.51 161.438ZM67.928 161.438C67.928 146.778 79.902 134.804 94.562 134.804C109.222 134.804 121.196 146.776 121.196 161.438V228.108C121.196 242.768 109.224 254.742 94.562 254.742C79.902 254.742 67.928 242.768 67.928 228.108V161.438Z" fill="#DE1C59"/>
<path d="M94.562 54.51C79.902 54.51 67.928 42.554 67.928 27.892C67.928 13.232 79.902 1.26001 94.562 1.26001C109.222 1.26001 121.196 13.234 121.196 27.894V54.512L94.562 54.51ZM94.562 67.928C109.222 67.928 121.196 79.902 121.196 94.562C121.196 109.222 109.224 121.196 94.562 121.196H27.892C13.232 121.196 1.26001 109.224 1.26001 94.562C1.26001 79.902 13.234 67.928 27.894 67.928H94.562Z" fill="#35C5F0"/>
<path d="M201.49 94.562C201.49 79.902 213.446 67.928 228.108 67.928C242.768 67.928 254.742 79.902 254.742 94.562C254.742 109.222 242.768 121.196 228.108 121.196H201.49V94.562ZM188.072 94.562C188.072 109.222 176.098 121.196 161.438 121.196C146.778 121.196 134.804 109.224 134.804 94.562V27.892C134.804 13.232 146.776 1.26001 161.438 1.26001C176.098 1.26001 188.072 13.234 188.072 27.894V94.562Z" fill="#2EB57D"/>
<path d="M161.438 201.49C176.098 201.49 188.072 213.446 188.072 228.108C188.072 242.768 176.098 254.742 161.438 254.742C146.778 254.742 134.804 242.768 134.804 228.108V201.49H161.438ZM161.438 188.072C146.778 188.072 134.804 176.098 134.804 161.438C134.804 146.778 146.776 134.804 161.438 134.804H228.108C242.768 134.804 254.742 146.776 254.742 161.438C254.742 176.098 242.768 188.072 228.108 188.072H161.438Z" fill="#EBB02E"/>
</svg>
