<svg width="256" height="256" viewBox="0 0 256 256" fill="none" xmlns="http://www.w3.org/2000/svg">
<g clip-path="url(#clip0_96_14)">
<path d="M196 0H60C26.8629 0 0 26.8629 0 60V196C0 229.137 26.8629 256 60 256H196C229.137 256 256 229.137 256 196V60C256 26.8629 229.137 0 196 0Z" fill="#001E36"/>
<path d="M57.6 178.04V68.28C57.6 67.533 57.92 67.107 58.667 67.107C60.48 67.107 62.187 67.107 64.64 67C67.2 66.893 69.867 66.893 72.747 66.787C75.627 66.68 78.72 66.68 82.027 66.573C85.333 66.467 88.533 66.467 91.733 66.467C100.48 66.467 107.733 67.533 113.707 69.773C119.062 71.5916 123.944 74.5795 128 78.52C131.437 81.9685 134.093 86.1155 135.787 90.68C137.387 95.16 138.24 99.747 138.24 104.547C138.24 113.72 136.107 121.293 131.84 127.267C127.573 133.24 121.6 137.72 114.667 140.28C107.413 142.947 99.413 143.907 90.667 143.907C88.107 143.907 86.4 143.907 85.333 143.8C84.267 143.693 82.773 143.693 80.747 143.693V177.933C80.853 178.68 80.32 179.32 79.573 179.427H58.88C58.027 179.427 57.6 179 57.6 178.04ZM80.853 87.693V123.533C82.347 123.64 83.733 123.747 85.013 123.747H90.667C94.827 123.747 98.987 123.107 102.933 121.827C106.347 120.867 109.333 118.84 111.68 116.173C113.92 113.507 114.987 109.88 114.987 105.187C115.087 101.854 114.236 98.5605 112.533 95.693C110.72 92.92 108.16 90.787 105.067 89.613C101.12 88.013 96.853 87.373 92.48 87.48C89.707 87.48 87.253 87.48 85.227 87.587C83.093 87.48 81.6 87.587 80.853 87.693ZM204.8 117.027C201.6 115.32 198.187 114.147 194.56 113.4C190.613 112.547 186.667 112.013 182.613 112.013C180.48 111.907 178.24 112.227 176.213 112.76C174.827 113.08 173.653 113.827 172.907 114.893C172.373 115.747 172.053 116.813 172.053 117.773C172.053 118.733 172.48 119.693 173.12 120.547C174.08 121.72 175.36 122.68 176.747 123.427C179.22 124.708 181.747 125.882 184.32 126.947C190.08 128.867 195.627 131.533 200.747 134.733C204.267 136.973 207.147 139.96 209.173 143.587C210.88 147 211.733 150.733 211.627 154.573C211.733 159.587 210.24 164.6 207.467 168.76C204.492 173.018 200.34 176.317 195.52 178.253C190.293 180.493 183.893 181.667 176.213 181.667C171.307 181.667 166.507 181.24 161.707 180.28C157.945 179.63 154.286 178.483 150.827 176.867C150.08 176.44 149.547 175.693 149.653 174.84V156.28C149.653 155.96 149.76 155.533 150.08 155.32C150.4 155.107 150.72 155.213 151.04 155.427C155.2 157.88 159.573 159.587 164.267 160.653C168.32 161.72 172.587 162.253 176.853 162.253C180.907 162.253 183.787 161.72 185.707 160.76C187.413 160.013 188.587 158.2 188.587 156.28C188.587 154.787 187.733 153.4 186.027 152.013C184.32 150.627 180.8 149.027 175.573 147C170.211 145.111 165.12 142.529 160.427 139.32C157.085 136.938 154.315 133.84 152.32 130.253C150.613 126.84 149.76 123.107 149.867 119.373C149.867 114.787 151.147 110.413 153.493 106.467C156.16 102.2 160.107 98.787 164.693 96.653C169.707 94.093 176 92.92 183.573 92.92C187.947 92.92 192.427 93.24 196.8 93.88C200 94.307 203.093 95.16 205.973 96.333C206.4 96.44 206.827 96.867 207.04 97.293C207.147 97.72 207.253 98.147 207.253 98.573V115.96C207.253 116.387 207.04 116.813 206.72 117.027C205.76 117.24 205.227 117.24 204.8 117.027Z" fill="#31A8FF"/>
</g>
<defs>
<clipPath id="clip0_96_14">
<rect width="256" height="256" fill="white"/>
</clipPath>
</defs>
</svg>
